HIERARCHY
ROOT pelvis
{
  OFFSET 0 100 0
  CHANNELS 6 Xposition Yposition Zposition Zrotation Xrotation Yrotation
  JOINT pelvis_right_femur
  {
    OFFSET -10.78128 -3.44521 -0.5502486
    CHANNELS 3 Zrotation Xrotation Yrotation
    JOINT right_femur_tibia
    {
      OFFSET -0.8047443 -44.0398 -0.1307829
      CHANNELS 3 Zrotation Xrotation Yrotation
      JOINT right_tibia_foot
      {
        OFFSET 3.006224 -47.83518 -5
        CHANNELS 3 Zrotation Xrotation Yrotation
        End Site
        {
          OFFSET 0 -5 15
        }
      }
    }
  }
  JOINT pelvis_left_femur
  {
    OFFSET 10.78128 -3.44521 -0.5502486
    CHANNELS 3 Zrotation Xrotation Yrotation
    JOINT left_femur_tibia
    {
      OFFSET 0.8047443 -44.0398 -0.1307829
      CHANNELS 3 Zrotation Xrotation Yrotation
      JOINT left_tibia_foot
      {
        OFFSET -4.370144 -48.10324 -4.275266
        CHANNELS 3 Zrotation Xrotation Yrotation
        End Site
        {
          OFFSET 0 -5 15
        }
      }
    }
  }
  JOINT pelvis_spine1
  {
    OFFSET 0 6.468898 -3.129235
    CHANNELS 3 Zrotation Xrotation Yrotation
    JOINT spine1
    {
      OFFSET 0 23.15396 4.99043
      CHANNELS 3 Zrotation Xrotation Yrotation
      JOINT spine2
      {
        OFFSET 0 20.79997 -5.064912
        CHANNELS 3 Zrotation Xrotation Yrotation
        JOINT neck
        {
          OFFSET 0 14.38658 9.616178
          CHANNELS 3 Zrotation Xrotation Yrotation
          End Site
          {
            OFFSET 0 20 0
          }
        }
      }
      JOINT right_manubrium
      {
        OFFSET -5.722621 16.35077 3.967754
        CHANNELS 3 Zrotation Xrotation Yrotation
        JOINT right_clavicle
        {
          OFFSET -13.16364 1.694482 -4.693211
          CHANNELS 3 Zrotation Xrotation Yrotation
          JOINT right_humerus
          {
            OFFSET -28.5034 -0.3100689 -2.792744
            CHANNELS 3 Zrotation Xrotation Yrotation
            JOINT right_radius
            {
              OFFSET -25.15693 0.02248979 -1.271978
              CHANNELS 3 Zrotation Xrotation Yrotation
              End Site
              {
                OFFSET -15 0 0
              }
            }
          }
        }
      }
      JOINT left_manubrium
      {
        OFFSET 5.722621 16.35077 3.967754
        CHANNELS 3 Zrotation Xrotation Yrotation
        JOINT left_clavicle
        {
          OFFSET 13.16364 1.694482 -4.693211
          CHANNELS 3 Zrotation Xrotation Yrotation
          JOINT left_humerus
          {
            OFFSET 29.39168 -1.063119 -2.237045
            CHANNELS 3 Zrotation Xrotation Yrotation
            JOINT left_radius
            {
              OFFSET 24.59957 -0.9528479 0.9047498
              CHANNELS 3 Zrotation Xrotation Yrotation
              End Site
              {
                OFFSET 15 -0 -0
              }
            }
          }
        }
      }
    }
  }
}
MOTION
Frames: 9
Frame Time: 0.0416666666667
0 103.5113 0 0.8387761 -1.806707 0.8707595 1.027662 -21.89492 2.9447 -0 35.09609 -0 -4.00032 -4.619232 -3.55143 -6.285426 12.57872 -17.03128 0 -5.196437 0 3.228619 -21.48133 20.32874 -3.571722 -1.455485 2.849573 1.447182 8.723802 -7.17463 1.441779 22.19752 7.188678 2.972718 -21.61386 9.063125 3.933119 -18.09492 10.49659 87.03421 31.39669 -18.04037 -0 0 14.08529 -15.2004 10.04316 8.839841 6.30009 -20.02501 -3.572439 -88.87217 26.93211 16.2162 0 0 -19.34244 3.581383 14.15264 9.675638
0.6070202 102.3426 3.783949 0.8616785 -1.697097 1.723141 0.994193 -22.0421 2.909838 -0 35.06329 -0 -4.090935 -4.703851 -3.463692 -6.295001 12.6306 -17.18344 0 -6.182015 0 3.492278 -21.63644 20.49385 -3.605591 -1.504616 2.839518 1.464033 8.725913 -7.192444 1.422378 22.17048 7.207812 2.991348 -21.70805 9.074124 3.92993 -18.21654 10.4998 86.9937 31.43778 -17.99581 -0 0 14.21408 -15.10895 9.972815 8.847242 6.338554 -20.05936 -3.568515 -88.96923 26.91312 16.38067 0 0 -19.31691 3.700785 14.25605 9.545026
1.118455 101.0591 7.517485 0.5665327 -1.15832 2.405207 1.862965 -24.50289 2.749117 -0 29.37809 -0 -4.984626 -5.520425 -3.376874 -5.892944 13.83815 -16.95072 0 -4.001104 0 3.60937 -21.63196 19.94087 -3.248947 -1.650995 2.761293 1.815685 8.903287 -7.622171 1.345074 21.9857 7.112732 3.033815 -22.13135 8.906739 3.772037 -18.2228 10.61021 87.75768 31.44725 -19.40356 -0 0 13.48675 -14.27616 10.01827 8.261512 6.582522 -20.98837 -3.685559 -88.63467 26.54966 15.82404 0 0 -21.08395 4.579802 14.60446 8.574714
1.550904 99.61373 11.15281 0.304148 -0.6163312 2.969035 2.566903 -26.66689 2.63361 -0 24.59432 -0 -5.792266 -6.3242 -3.240235 -5.564131 14.85769 -16.90811 0 -3.087327 0 3.930161 -21.77341 19.63466 -2.983912 -1.814006 2.694106 2.127214 9.040507 -7.995367 1.263305 21.80514 7.051809 3.083677 -22.57322 8.780705 3.646723 -18.33886 10.70426 88.34147 31.50762 -20.52287 -0 0 13.01715 -13.48676 9.989379 7.777745 6.817519 -21.77807 -3.764575 -88.46135 26.25774 15.53004 0 0 -22.52921 5.396511 14.9671 7.680928
1.904186 98.06915 14.77269 0.08819402 -0.3294026 3.424001 3.180827 -28.28715 2.505208 -0 20.62364 -0 -6.466034 -6.746108 -3.192027 -5.280911 15.67342 -16.65907 0 -1.200643 0 3.987357 -21.66683 19.18921 -2.712397 -1.917378 2.639855 2.355444 9.208414 -8.285561 1.213168 21.6901 6.96669 3.109277 -22.82099 8.637802 3.492161 -18.33639 10.78747 88.94313 31.36882 -21.51688 -0 0 12.44404 -13.00509 10.02508 7.397296 6.981067 -22.46926 -3.886839 -88.18963 25.87144 15.0934 0 0 -23.74202 6.104355 15.18873 6.883326
2.181087 96.47989 18.43097 -0.09152083 -0.1910309 3.776674 3.724714 -29.55022 2.388284 -0 17.26247 -0 -7.022545 -6.954117 -3.201764 -5.037779 16.35028 -16.30614 -0 1.191379 -0 3.875971 -21.42863 18.67729 -2.448279 -1.978669 2.59535 2.530601 9.378789 -8.519252 1.183732 21.61635 6.872912 3.119126 -22.95019 8.494409 3.335257 -18.25636 10.86025 89.52164 31.14012 -22.40262 -0 0 11.83196 -12.70394 10.10111 7.081886 7.095132 -23.0691 -4.021959 -87.87515 25.46955 14.58755 0 0 -24.78662 6.697141 15.31356 6.202921
2.384674 94.90417 22.19541 -0.2265356 -0.2362007 4.033964 4.197754 -30.40214 2.273465 -0 14.56055 -0 -7.441864 -6.896664 -3.28579 -4.837599 16.87648 -15.80109 -0 4.353585 -0 3.534925 -21.00795 18.05809 -2.183215 -1.985526 2.561322 2.643935 9.556927 -8.688681 1.180669 21.5935 6.764697 3.109016 -22.92968 8.346054 3.172073 -18.0671 10.92221 90.0889 30.79625 -23.18415 -0 0 11.14246 -12.622 10.23738 6.835835 7.148305 -23.57029 -4.178199 -87.49129 25.03962 13.96696 0 0 -25.65795 7.149963 15.3203 5.663279
2.518625 93.40726 26.13988 -0.3141572 -0.4711114 4.201804 4.60529 -30.81813 2.166253 -0 12.51567 -0 -7.703638 -6.579899 -3.454156 -4.679284 17.23551 -15.12539 -0 8.409266 -0 2.930076 -20.38168 17.31841 -1.913407 -1.929815 2.54073 2.694031 9.738405 -8.790762 1.206783 21.62407 6.640266 3.076701 -22.74895 8.193199 3.007139 -17.75208 10.97318 90.63935 30.34513 -23.86068 -0 0 10.36582 -12.76452 10.44607 6.656714 7.134312 -23.96172 -4.352304 -87.03363 24.59463 13.21796 0 0 -26.35921 7.430469 15.19718 5.301012
2.587595 92.06373 30.34771 -0.3495573 -0.9187391 4.285383 4.947138 -30.71886 2.068947 -0 11.1663 -0 -7.780722 -5.993139 -3.720145 -4.560651 17.37671 -14.24482 -0 13.53491 -0 2.017973 -19.50229 16.44519 -1.633921 -1.800338 2.540015 2.673207 9.922245 -8.815073 1.266702 21.71405 6.495143 3.018602 -22.38528 8.034063 2.841243 -17.29357 11.01325 91.16409 29.78054 -24.41502 -0 0 9.494555 -13.1595 10.74324 6.553209 7.042251 -24.22533 -4.543768 -86.49815 24.13651 12.32977 0 0 -26.8716 7.501998 14.92458 5.155693
